USFL
nRows=370
nColumns=2
inDegrees=yes
endheader
time	tib_ant_r	
2.4948	 42.229963	
2.52806	 42.231143	
2.56133	 42.236897	
2.59459	 42.232704	
2.62786	 42.244370	
2.66112	 42.248812	
2.69438	 42.257078	
2.72765	 42.270768	
2.76091	 42.264436	
2.79418	 42.264702	
2.82744	 42.267078	
2.8607	 42.266597	
2.89397	 42.269436	
2.92723	 42.265274	
2.9605	 42.267407	
2.99376	 42.279218	
3.02702	 42.288268	
3.06029	 42.271982	
3.09355	 42.273778	
3.12682	 42.263623	
3.16008	 42.261047	
3.19334	 42.271445	
3.22661	 42.288095	
3.25987	 42.286373	
3.29314	 42.277701	
3.3264	 42.282022	
3.35966	 42.281951	
3.39293	 42.280437	
3.42619	 42.271164	
3.45946	 42.248678	
3.49272	 42.252075	
3.52598	 42.253732	
3.55925	 42.269372	
3.59251	 42.290033	
3.62578	 42.261577	
3.65904	 42.281637	
3.6923	 42.275453	
3.72557	 42.260671	
3.75883	 42.285347	
3.7921	 42.239089	
3.82536	 42.247560	
3.85862	 42.259671	
3.89189	 42.250047	
3.92515	 42.262418	
3.95842	 42.292052	
3.99168	 42.247086	
4.02494	 42.297682	
4.05821	 42.268806	
4.09147	 42.267179	
4.12474	 42.331208	
4.158	 42.284528	
4.19126	 42.209514	
4.22453	 42.208412	
4.25779	 42.159871	
4.29106	 42.088678	
4.32432	 42.068627	
4.35758	 41.805819	
4.39085	 41.782513	
4.42411	 41.709170	
4.45738	 41.571375	
4.49064	 41.433284	
4.5239	 41.329508	
4.55717	 41.187901	
4.59043	 41.062846	
4.6237	 40.974884	
4.65696	 40.833185	
4.69022	 40.809751	
4.72349	 40.627639	
4.75675	 40.642971	
4.79002	 40.598669	
4.82328	 40.493452	
4.85654	 40.444608	
4.88981	 40.394498	
4.92307	 40.282085	
4.95634	 40.223410	
4.9896	 40.149414	
5.02286	 40.050070	
5.05613	 40.030896	
5.08939	 39.971089	
5.12266	 39.897796	
5.15592	 39.839275	
5.18918	 39.768505	
5.22245	 39.739423	
5.25571	 39.693405	
5.28898	 39.658320	
5.32224	 39.640030	
5.3555	 39.621157	
5.38877	 39.603212	
5.42203	 39.547621	
5.4553	 39.512034	
5.48856	 39.410932	
5.52182	 39.363450	
5.55509	 39.312867	
5.58835	 39.265920	
5.62162	 39.229323	
5.65488	 39.148415	
5.68814	 39.131585	
5.72141	 39.090359	
5.75467	 38.975108	
5.78794	 38.860014	
5.8212	 38.794029	
5.85446	 38.463234	
5.88773	 38.288172	
5.92099	 38.057300	
5.95426	 37.899214	
5.98752	 37.809631	
6.02078	 37.615261	
6.05405	 37.479030	
6.08731	 37.380728	
6.12058	 37.289501	
6.15384	 37.200846	
6.1871	 37.150607	
6.22037	 36.917328	
6.25363	 36.870360	
6.2869	 36.712241	
6.32016	 36.644847	
6.35342	 36.622993	
6.38669	 36.535791	
6.41995	 36.450768	
6.45322	 36.428607	
6.48648	 36.399832	
6.51974	 36.330501	
6.55301	 36.312622	
6.58627	 36.127234	
6.61954	 36.067766	
6.6528	 36.034558	
6.68606	 35.991396	
6.71933	 35.961763	
6.75259	 35.972804	
6.78586	 36.012085	
6.81912	 35.974431	
6.85238	 35.925503	
6.88565	 35.940096	
6.91891	 35.810257	
6.95218	 35.708213	
6.98544	 35.650511	
7.0187	 35.650587	
7.05197	 35.657931	
7.08523	 35.627024	
7.1185	 35.574317	
7.15176	 35.564853	
7.18502	 35.518277	
7.21829	 35.459632	
7.25155	 35.399399	
7.28482	 35.350913	
7.31808	 35.205805	
7.35134	 35.137300	
7.38461	 35.118188	
7.41787	 35.078957	
7.45114	 35.076192	
7.4844	 35.004366	
7.51766	 34.993785	
7.55093	 34.958724	
7.58419	 34.931327	
7.61746	 34.909653	
7.65072	 34.907725	
7.68398	 34.883100	
7.71725	 34.852092	
7.75051	 34.821935	
7.78378	 34.826688	
7.81704	 34.807872	
7.8503	 34.792022	
7.88357	 34.800104	
7.91683	 34.777327	
7.9501	 34.759524	
7.98336	 34.762545	
8.01662	 34.737334	
8.04989	 34.710709	
8.08315	 34.686031	
8.11642	 34.643777	
8.14968	 34.640544	
8.18294	 34.627971	
8.21621	 34.642848	
8.24947	 34.622861	
8.28274	 34.626200	
8.316	 34.600270	
8.34926	 34.560340	
8.38253	 34.554102	
8.41579	 34.553198	
8.44906	 34.543574	
8.48232	 34.538401	
8.51558	 34.531338	
8.54885	 34.540099	
8.58211	 34.521847	
8.61538	 34.528968	
8.64864	 34.531745	
8.6819	 34.523772	
8.71517	 34.521282	
8.74843	 34.512289	
8.7817	 34.498013	
8.81496	 34.492953	
8.84822	 34.487480	
8.88149	 34.517144	
8.91475	 34.509446	
8.94802	 34.503494	
8.98128	 34.511359	
9.01454	 34.495503	
9.04781	 34.490472	
9.08107	 34.483521	
9.11434	 34.488736	
9.1476	 34.469986	
9.18086	 34.494715	
9.21413	 34.529341	
9.24739	 34.544853	
9.28066	 34.560289	
9.31392	 34.623971	
9.34718	 34.664754	
9.38045	 34.682874	
9.41371	 34.666905	
9.44698	 34.691270	
9.48024	 34.693850	
9.5135	 34.727421	
9.54677	 34.712468	
9.58003	 34.714808	
9.6133	 34.719862	
9.64656	 34.685803	
9.67982	 34.674263	
9.71309	 34.649767	
9.74635	 34.619078	
9.77962	 34.598370	
9.81288	 34.622744	
9.84614	 34.643300	
9.87941	 34.645722	
9.91267	 34.624732	
9.94594	 34.652363	
9.9792	 34.677913	
10.0125	 34.648741	
10.0457	 34.669175	
10.079	 34.708846	
10.1123	 34.689864	
10.1455	 34.697546	
10.1788	 34.756812	
10.212	 34.777731	
10.2453	 34.804827	
10.2786	 34.946479	
10.3118	 35.030720	
10.3451	 35.119724	
10.3784	 35.103249	
10.4116	 35.090207	
10.4449	 35.128919	
10.4782	 35.096490	
10.5114	 35.203236	
10.5447	 35.324292	
10.578	 35.333099	
10.6112	 35.460222	
10.6445	 35.577511	
10.6777	 35.700969	
10.711	 35.825204	
10.7443	 35.811233	
10.7775	 36.037857	
10.8108	 36.158046	
10.8441	 36.251871	
10.8773	 36.356630	
10.9106	 36.519896	
10.9439	 36.602265	
10.9771	 36.678437	
11.0104	 36.800214	
11.0436	 37.077860	
11.0769	 36.944906	
11.1102	 36.926211	
11.1434	 36.818005	
11.1767	 36.909892	
11.21	 37.020065	
11.2432	 37.188407	
11.2765	 37.160192	
11.3098	 37.230355	
11.343	 37.329476	
11.3763	 37.325864	
11.4096	 37.379054	
11.4428	 37.349699	
11.4761	 37.327609	
11.5093	 37.306168	
11.5426	 37.301996	
11.5759	 37.308432	
11.6091	 37.294498	
11.6424	 37.311900	
11.6757	 37.321703	
11.7089	 37.377759	
11.7422	 37.443018	
11.7755	 37.671396	
11.8087	 37.705913	
11.842	 37.736192	
11.8752	 37.803708	
11.9085	 37.850421	
11.9418	 37.885276	
11.975	 37.948780	
12.0083	 37.962241	
12.0416	 38.007229	
12.0748	 38.069844	
12.1081	 38.084758	
12.1414	 38.154279	
12.1746	 38.182867	
12.2079	 38.169890	
12.2412	 38.204523	
12.2744	 38.216340	
12.3077	 38.242719	
12.3409	 38.270524	
12.3742	 38.282301	
12.4075	 38.303513	
12.4407	 38.347641	
12.474	 38.355017	
12.5073	 38.383832	
12.5405	 38.381329	
12.5738	 38.387272	
12.6071	 38.388886	
12.6403	 38.392231	
12.6736	 38.386754	
12.7068	 38.376360	
12.7401	 38.368797	
12.7734	 38.371360	
12.8066	 38.366976	
12.8399	 38.378196	
12.8732	 38.379349	
12.9064	 38.383663	
12.9397	 38.386588	
12.973	 38.393247	
13.0062	 38.398370	
13.0395	 38.400688	
13.0728	 38.401351	
13.106	 38.402768	
13.1393	 38.407147	
13.1725	 38.412783	
13.2058	 38.405295	
13.2391	 38.406691	
13.2723	 38.396756	
13.3056	 38.400963	
13.3389	 38.400471	
13.3721	 38.399190	
13.4054	 38.404338	
13.4387	 38.400724	
13.4719	 38.411766	
13.5052	 38.395737	
13.5384	 38.406383	
13.5717	 38.412508	
13.605	 38.416683	
13.6382	 38.424682	
13.6715	 38.406514	
13.7048	 38.409623	
13.738	 38.423524	
13.7713	 38.418867	
13.8046	 38.430501	
13.8378	 38.425831	
13.8711	 38.415611	
13.9044	 38.401769	
13.9376	 38.391763	
13.9709	 38.375715	
14.0041	 38.384522	
14.0374	 38.385133	
14.0707	 38.382947	
14.1039	 38.397660	
14.1372	 38.401952	
14.1705	 38.415267	
14.2037	 38.428471	
14.237	 38.411838	
14.2703	 38.404253	
14.3035	 38.400197	
14.3368	 38.403458	
14.37	 38.394505	
14.4033	 38.392456	
14.4366	 38.397633	
14.4698	 38.405861	
14.5031	 38.403977	
14.5364	 38.410404	
14.5696	 38.407182	
14.6029	 38.407240	
14.6362	 38.390476	
14.6694	 38.382059	
14.7027	 38.379791	
14.736	 38.361057	
14.7692	 38.333951	
